<svg xmlns="http://www.w3.org/2000/svg" width="1200" height="630" viewBox="0 0 1200 630">
  <defs>
    <linearGradient id="bg" x1="0" y1="0" x2="1" y2="1">
      <stop offset="0" stop-color="#05060a"/>
      <stop offset="1" stop-color="#0b1220"/>
    </linearGradient>
    <radialGradient id="glow" cx="30%" cy="30%" r="60%">
      <stop offset="0" stop-color="#3b82f6" stop-opacity="0.35"/>
      <stop offset="1" stop-color="#3b82f6" stop-opacity="0"/>
    </radialGradient>
  </defs>

  <rect width="1200" height="630" fill="url(#bg)"/>
  <circle cx="280" cy="160" r="420" fill="url(#glow)"/>
  <circle cx="980" cy="520" r="420" fill="url(#glow)"/>

  <g transform="translate(96 92)">
    <rect x="0" y="0" width="92" height="92" rx="22" fill="#3b82f6"/>
    <path d="M62 30c-5-5-11-8-19-8-14 0-25 10-25 22 0 6 3 11 7 15" fill="none" stroke="white" stroke-width="8" stroke-linecap="round"/>
    <path d="M56 40c-3-3-7-5-13-5-9 0-16 6-16 13 0 4 2 7 5 10" fill="none" stroke="white" stroke-width="8" stroke-linecap="round"/>
    <path d="M32 62c3 3 7 5 13 5 9 0 16-6 16-13 0-4-2-7-5-10" fill="none" stroke="white" stroke-width="8" stroke-linecap="round"/>
    <path d="M66 68l12 12" fill="none" stroke="white" stroke-width="8" stroke-linecap="round"/>
  </g>

  <text x="96" y="260" fill="white" font-family="ui-sans-serif, system-ui, -apple-system, Segoe UI, Roboto, Arial" font-size="64" font-weight="800">
    SEO Group Buy
  </text>
  <text x="96" y="330" fill="#a1a1aa" font-family="ui-sans-serif, system-ui, -apple-system, Segoe UI, Roboto, Arial" font-size="36" font-weight="600">
    Premium tools. Fractional cost.
  </text>
  <text x="96" y="410" fill="#60a5fa" font-family="ui-sans-serif, system-ui, -apple-system, Segoe UI, Roboto, Arial" font-size="30" font-weight="700">
    Unlock Premium Group Buy SEO Tools at 95% Off
  </text>
</svg>
